<svg width="47" height="48" viewBox="0 0 47 48" fill="none" xmlns="http://www.w3.org/2000/svg">
<path d="M23.7985 0.931803C17.6564 0.93726 11.7679 3.38195 7.42801 7.72827C3.0881 12.0746 0.652099 17.9667 0.655705 24.1088C0.659263 30.2509 3.10221 36.1402 7.44731 40.4815C11.7924 44.8228 17.6839 47.2605 23.826 47.2587C29.9682 47.2569 35.8582 44.8156 40.2007 40.4718C44.5432 36.1279 46.9827 30.2372 46.9826 24.095V24.068C46.9754 17.9258 44.5289 12.0379 40.1812 7.69923C35.8336 3.36054 29.9407 0.926296 23.7985 0.931803ZM23.6926 5.88227C28.5036 5.87792 33.1193 7.78457 36.5247 11.1829C39.9301 14.5813 41.8463 19.1931 41.8519 24.004V24.025C41.8518 28.8358 39.941 33.4497 36.5397 36.852C33.1384 40.2543 28.525 42.1663 23.7141 42.1677C18.9033 42.1691 14.2888 40.2597 10.8855 36.8594C7.48221 33.4591 5.56875 28.8463 5.56593 24.0354C5.56319 19.2247 7.47124 14.6097 10.8705 11.2055C14.2697 7.80131 18.8819 5.88655 23.6926 5.88227Z" fill="white"/>
<path d="M20.5863 39.0783L24.5357 35.1289L16.9304 27.5236C16.6102 27.2034 16.2633 26.8031 16.0765 26.3494C15.6495 25.4421 15.4627 24.0278 16.5035 22.9871C17.7844 21.7062 19.4922 22.2399 21.1467 23.8944L28.4585 31.2062L32.4079 27.2567L24.7759 19.6248C24.4557 19.3045 24.0821 18.8242 23.8953 18.4239C23.3883 17.3832 23.415 16.0756 24.3489 15.1416C25.6565 13.8341 27.3644 14.3144 29.259 16.209L36.3573 23.3073L40.3067 19.3579L32.6214 11.6725C28.7253 7.77649 25.0694 7.90992 22.561 10.4183C21.6003 11.379 21.0133 12.393 20.7197 13.5405C20.4796 14.5279 20.3995 15.622 20.613 16.7961L20.5596 16.8495C18.6383 16.0489 16.4501 16.5293 14.7689 18.2104C12.5274 20.452 12.6074 22.827 12.8743 24.2146L12.7942 24.2947L10.8462 22.7202L7.43048 26.136C8.63131 27.2301 10.0723 28.5643 11.7001 30.1921L20.5863 39.0783Z" fill="white"/>
</svg>
