<svg width="168" height="128" viewBox="0 0 168 128" fill="none" xmlns="http://www.w3.org/2000/svg">
<path d="M66.9662 127.067C26.8232 127.053 0 98.6051 0 64.1123C0 29.6195 26.8844 0.844919 66.905 0.933309H100.684C140.704 0.844909 167.589 29.6195 167.589 64.1123C167.589 98.6051 140.765 127.053 100.622 127.067H66.9662ZM67.0886 16.4493C35.3087 16.5105 15.8015 37.7515 15.8015 64.0307C15.8015 90.3032 35.1863 111.721 67.0886 111.605H100.5C132.402 111.714 151.794 90.3032 151.794 64.0307C151.794 37.7583 132.287 16.5173 100.507 16.4561L67.0886 16.4493ZM50.7839 93.5872L50.7907 34.2091H69.2915L94.8841 75.6167L94.8705 34.2091H113.229V93.5872H94.8977L69.1692 52.1796V93.5872H50.7839Z" fill="white"/>
</svg>
