<svg width="160" height="220" viewBox="0 0 160 220" fill="none" xmlns="http://www.w3.org/2000/svg">
<path d="M92.613 101.507H88.0668V100.537C88.0668 98.9302 87.4152 97.6275 86.612 97.6275H74.6103C74.0659 97.6275 73.5919 98.2268 73.3426 99.1128L80.3148 106.12C80.3932 106.117 80.4714 106.114 80.5506 106.114C84.066 106.114 86.9153 108.964 86.9153 112.479C86.9153 112.569 86.9121 112.658 86.9086 112.747L95.3629 121.243C95.465 120.946 95.523 120.629 95.523 120.298V104.417C95.5228 102.81 94.2199 101.507 92.613 101.507Z" fill="#7D859E"/>
<path d="M68.6093 123.208H88.7667L83.6324 118.048C82.7191 118.554 81.6688 118.843 80.5506 118.843C77.0355 118.843 74.186 115.994 74.186 112.479C74.186 111.349 74.4814 110.289 74.9974 109.37L67.4257 101.76C66.4091 102.214 65.6995 103.232 65.6995 104.417V120.298C65.6995 121.905 67.0024 123.208 68.6093 123.208Z" fill="#7D859E"/>
<path d="M80.409 80C63.6414 80 50 93.6414 50 110.409C50 127.177 63.6414 140.818 80.409 140.818C97.1766 140.818 110.818 127.177 110.818 110.409C110.818 93.6416 97.1766 80 80.409 80ZM80.409 136.777C65.8697 136.777 54.0411 124.948 54.0411 110.409C54.0411 103.868 56.4364 97.8756 60.3948 93.262L97.4558 130.508C92.8559 134.416 86.9036 136.777 80.409 136.777ZM100.329 127.667L63.2515 90.4037C67.8665 86.44 73.8627 84.0413 80.409 84.0413C94.9483 84.0413 106.777 95.8699 106.777 110.409C106.777 117.002 104.344 123.038 100.329 127.667Z" fill="#7D859E"/>
</svg>
