<svg width="200" height="155" viewBox="0 0 200 155" fill="none" xmlns="http://www.w3.org/2000/svg">
<path fill-rule="evenodd" clip-rule="evenodd" d="M197.239 117.962C193.371 122.842 183.896 126.322 183.896 126.322L113.404 151.642V132.97L165.281 114.486C171.168 112.376 172.072 109.395 167.287 107.829C162.511 106.26 153.862 106.71 147.971 108.828L113.404 121.002V101.623L115.397 100.949C115.397 100.949 125.385 97.4137 139.431 95.8576C153.476 94.3105 170.673 96.069 184.174 101.187C199.389 105.995 201.102 113.082 197.239 117.962ZM120.115 86.1659V38.4133C120.115 32.8051 119.08 27.6422 113.818 26.1805C109.789 24.8898 107.288 28.6316 107.288 34.2352V153.819L75.0378 143.583V1C88.7502 3.54549 108.727 9.56291 119.467 13.1833C146.779 22.5602 156.039 34.2307 156.039 60.5266C156.039 86.1569 140.218 95.8711 120.115 86.1659ZM15.862 131.018C0.242793 126.619 -2.35666 117.454 4.7626 112.174C11.3422 107.299 22.5315 103.629 22.5315 103.629L68.773 87.1867V105.932L35.4973 117.841C29.6193 119.95 28.7154 122.936 33.4915 124.501C38.2722 126.066 46.925 125.621 52.812 123.507L68.773 117.715V134.485C67.7611 134.665 66.6323 134.845 65.5889 135.02C49.6234 137.629 32.619 136.54 15.862 131.018Z" fill="white"/>
</svg>
